HIERARCHY
ROOT Hips
{
	OFFSET -32.860001 56.121803 44.745396
	CHANNELS 6 Xposition Yposition Zposition Zrotation Xrotation Yrotation
	JOINT Chest
	{
		OFFSET -0.637402 0.831600 5.390099
		CHANNELS 6 Xposition Yposition Zposition Zrotation Xrotation Yrotation
		JOINT Chest2
		{
			OFFSET 0.000000 0.000000 4.429901
			CHANNELS 6 Xposition Yposition Zposition Zrotation Xrotation Yrotation
			JOINT Neck
			{
				OFFSET 0.000000 0.000000 10.301395
				CHANNELS 6 Xposition Yposition Zposition Zrotation Xrotation Yrotation
				JOINT Head
				{
					OFFSET 0.000000 0.000000 2.173897
					CHANNELS 6 Xposition Yposition Zposition Zrotation Xrotation Yrotation
					End Site
					{
						OFFSET 0.000000 0.000000 8.298004
					}
				}
			}
			JOINT LeftCollar
			{
				OFFSET 2.142401 -0.572701 5.717800
				CHANNELS 6 Xposition Yposition Zposition Zrotation Xrotation Yrotation
				JOINT LeftShoulder
				{
					OFFSET 5.674000 0.000000 0.000000
					CHANNELS 6 Xposition Yposition Zposition Zrotation Xrotation Yrotation
					JOINT LeftElbow
					{
						OFFSET 0.000000 0.000000 -12.238701
						CHANNELS 6 Xposition Yposition Zposition Zrotation Xrotation Yrotation
						JOINT LeftWrist
						{
							OFFSET 0.000000 0.000000 -10.253700
							CHANNELS 6 Xposition Yposition Zposition Zrotation Xrotation Yrotation
							End Site
							{
								OFFSET 0.000000 0.000000 -2.173901
							}
						}
					}
				}
			}
			JOINT RightCollar
			{
				OFFSET -2.882599 -1.580101 6.695801
				CHANNELS 6 Xposition Yposition Zposition Zrotation Xrotation Yrotation
				JOINT RightShoulder
				{
					OFFSET -4.235600 0.000000 0.000000
					CHANNELS 6 Xposition Yposition Zposition Zrotation Xrotation Yrotation
					JOINT RightElbow
					{
						OFFSET 0.000000 0.000000 -10.709900
						CHANNELS 6 Xposition Yposition Zposition Zrotation Xrotation Yrotation
						JOINT RightWrist
						{
							OFFSET 0.000000 0.000000 -11.716801
							CHANNELS 6 Xposition Yposition Zposition Zrotation Xrotation Yrotation
							End Site
							{
								OFFSET 0.000000 0.000000 -2.173901
							}
						}
					}
				}
			}
		}
	}
	JOINT LeftHip
	{
		OFFSET 2.279499 0.210400 -2.475502
		CHANNELS 6 Xposition Yposition Zposition Zrotation Xrotation Yrotation
		JOINT LeftKnee
		{
			OFFSET 0.000000 -0.000004 -20.742800
			CHANNELS 6 Xposition Yposition Zposition Zrotation Xrotation Yrotation
			JOINT LeftAnkle
			{
				OFFSET 0.000000 0.000000 -16.666000
				CHANNELS 6 Xposition Yposition Zposition Zrotation Xrotation Yrotation
				End Site
				{
					OFFSET 0.000000 -8.310898 0.000000
				}
			}
		}
	}
	JOINT RightHip
	{
		OFFSET -1.961899 0.232300 -2.727402
		CHANNELS 6 Xposition Yposition Zposition Zrotation Xrotation Yrotation
		JOINT RightKnee
		{
			OFFSET 0.000000 -0.000004 -20.526800
			CHANNELS 6 Xposition Yposition Zposition Zrotation Xrotation Yrotation
			JOINT RightAnkle
			{
				OFFSET 0.000000 0.000000 -16.867300
				CHANNELS 6 Xposition Yposition Zposition Zrotation Xrotation Yrotation
				End Site
				{
					OFFSET 0.000000 -7.186401 0.000000
				}
			}
		}
	}
}
MOTION
Frames: 8
Frame Time: 0.041667
63.065720 61.718102 47.308586 -74.746469 -1.699649 -3.111994 -0.637399 0.831588 5.390104 6.000454 22.166371 -3.341077 -0.000003 0.000000 4.429904 -3.066601 -0.644254 -0.079777 -0.000004 0.000004 10.301399 -27.079928 51.028613 -3.242293 -0.000008 0.000002 2.173894 -1.059557 4.281071 -1.321264 2.142397 -0.572700 5.717800 -5.132160 2.858340 -23.324973 5.673999 -0.000002 0.000010 -16.089088 12.563692 -57.312780 0.000004 -0.000011 -12.238695 38.898569 -12.909882 13.966663 0.000005 0.000004 -10.253694 -109.252919 12.075190 -26.063869 -2.882602 -1.580102 6.695794 -2.899659 -10.952935 23.860923 -4.235618 0.000002 -0.000006 24.025469 -6.096763 81.080206 0.000002 0.000007 -10.709902 -33.082889 -23.557193 -28.037450 0.000004 0.000009 -11.716807 110.603726 4.395871 4.455257 2.279504 0.210403 -2.475500 22.998960 -16.118352 -6.954016 -0.000004 -0.000008 -20.742800 -20.199789 35.837227 -5.582312 -0.000001 0.000000 -16.665998 -10.841683 55.760278 19.745329 -1.961887 0.232299 -2.727399 -58.089960 -31.179011 3.379988 0.000005 -0.000006 -20.526796 5.012225 28.203458 6.705017 0.000006 -0.000003 -16.867302 74.472080 66.770987 -53.045889
63.091011 61.722801 47.305695 -74.721436 -1.661433 -3.110554 -0.637398 0.831596 5.390098 6.258840 22.090645 -3.543614 -0.000005 0.000012 4.429907 -3.180172 -0.730529 -0.081046 -0.000004 -0.000010 10.301401 -27.298948 50.960636 -3.020040 -0.000008 0.000004 2.173899 -1.098052 4.460247 -1.488967 2.142396 -0.572704 5.717807 -5.280187 3.199550 -23.043180 5.673990 -0.000000 -0.000006 -16.061793 12.404910 -57.556775 0.000003 -0.000009 -12.238705 38.962910 -12.863496 13.919188 0.000002 0.000006 -10.253698 -109.201570 12.094861 -26.129034 -2.882602 -1.580103 6.695796 -3.034643 -11.078181 24.025339 -4.235617 0.000002 -0.000008 24.019550 -5.870016 80.899356 0.000000 -0.000002 -10.709911 -33.271760 -23.500905 -28.129437 -0.000012 0.000010 -11.716797 110.982200 4.437694 4.462490 2.279503 0.210400 -2.475500 22.638117 -16.060630 -6.981827 -0.000003 -0.000011 -20.742798 -20.993534 35.982611 -5.101228 0.000001 -0.000007 -16.665995 -9.899881 55.505331 19.567744 -1.961891 0.232294 -2.727403 -58.354343 -31.249908 3.198897 0.000000 -0.000015 -20.526804 5.430156 28.352694 6.637694 -0.000006 0.000005 -16.867300 73.883263 66.676136 -52.620597
63.114906 61.730297 47.302788 -74.725049 -1.633109 -3.099161 -0.637403 0.831585 5.390105 6.449056 22.028513 -3.700769 -0.000001 -0.000007 4.429911 -3.253607 -0.781235 -0.081466 0.000006 -0.000002 10.301400 -27.293351 50.926167 -3.017937 0.000005 0.000004 2.173902 -1.224551 4.462416 -1.606707 2.142398 -0.572694 5.717802 -5.393367 3.434398 -22.811618 5.673995 -0.000011 -0.000005 -16.006420 12.260593 -57.762923 -0.000003 -0.000010 -12.238703 38.956370 -12.842396 13.881425 0.000002 0.000008 -10.253697 -109.147885 12.110903 -26.187318 -2.882599 -1.580095 6.695800 -3.084118 -11.110400 24.198312 -4.235616 0.000013 -0.000011 23.924059 -5.808369 80.714381 0.000007 -0.000004 -10.709898 -33.048506 -23.601229 -28.069649 -0.000011 -0.000009 -11.716801 110.996482 4.471045 4.473452 2.279498 0.210398 -2.475494 22.249275 -15.980455 -7.038223 -0.000004 -0.000008 -20.742805 -21.916947 36.144815 -4.533313 -0.000001 -0.000005 -16.666000 -8.820473 55.212603 19.356464 -1.961901 0.232287 -2.727404 -58.607442 -31.306466 3.013274 -0.000003 -0.000011 -20.526794 5.695277 28.453665 6.623432 -0.000003 0.000006 -16.867302 73.570795 66.601851 -52.346904
63.137520 61.740097 47.299294 -74.752411 -1.609911 -3.075075 -0.637407 0.831585 5.390093 6.498722 21.977664 -3.769936 -0.000009 -0.000008 4.429905 -3.255121 -0.798951 -0.081693 0.000004 -0.000008 10.301400 -27.126798 50.913975 -3.151772 0.000003 0.000002 2.173906 -1.358774 4.461724 -1.660505 2.142405 -0.572703 5.717801 -5.454255 3.512657 -22.711576 5.673994 -0.000001 -0.000005 -15.936956 12.179013 -57.847795 -0.000002 -0.000006 -12.238698 38.882884 -12.857803 13.856200 0.000006 0.000008 -10.253698 -109.092697 12.125844 -26.235221 -2.882590 -1.580094 6.695802 -3.023861 -11.006442 24.329547 -4.235608 -0.000006 0.000000 23.741850 -5.892470 80.598233 0.000004 -0.000006 -10.709908 -32.620516 -23.751438 -27.959057 -0.000005 -0.000005 -11.716803 110.790859 4.529770 4.518105 2.279497 0.210392 -2.475499 22.100949 -15.981360 -7.074855 -0.000007 -0.000015 -20.742796 -22.651602 36.294983 -4.104395 -0.000001 0.000002 -16.666000 -8.072206 54.973642 19.106168 -1.961899 0.232287 -2.727400 -58.803257 -31.338315 2.849129 -0.000009 0.000000 -20.526798 5.849669 28.524137 6.643888 -0.000001 -0.000003 -16.867304 73.409002 66.507451 -52.170750
63.157211 61.750801 47.296097 -74.822182 -1.608896 -3.048624 -0.637403 0.831592 5.390100 6.412778 21.970873 -3.744536 -0.000002 0.000003 4.429910 -3.174825 -0.786047 -0.082254 0.000000 0.000004 10.301398 -26.843982 50.926270 -3.387510 -0.000002 0.000001 2.173897 -1.477710 4.440807 -1.650336 2.142396 -0.572697 5.717801 -5.450062 3.400061 -22.737012 5.673998 -0.000006 0.000000 -15.863300 12.163151 -57.817203 0.000006 -0.000014 -12.238696 38.726138 -12.905011 13.846140 -0.000007 -0.000004 -10.253700 -109.036354 12.142800 -26.270470 -2.882597 -1.580091 6.695792 -2.911887 -10.825823 24.386791 -4.235616 0.000006 0.000000 23.533284 -6.086169 80.568331 0.000010 0.000004 -10.709915 -31.967088 -24.001577 -27.790971 -0.000001 0.000007 -11.716801 110.287966 4.595292 4.614194 2.279502 0.210402 -2.475499 22.172163 -16.016638 -7.092584 0.000001 -0.000003 -20.742802 -23.206548 36.422247 -3.820929 -0.000001 0.000002 -16.665993 -7.637967 54.797156 18.926125 -1.961891 0.232298 -2.727401 -58.808591 -31.319993 2.799082 -0.000005 -0.000010 -20.526796 5.844116 28.537417 6.656437 0.000000 0.000005 -16.867304 73.348466 66.423651 -52.066232
63.175812 61.761898 47.292793 -74.900804 -1.625771 -3.022666 -0.637394 0.831600 5.390093 6.185588 22.002353 -3.635944 -0.000009 0.000010 4.429910 -3.022624 -0.745055 -0.083098 -0.000002 -0.000002 10.301410 -26.583298 50.958665 -3.583841 -0.000009 -0.000013 2.173909 -1.523352 4.379419 -1.613996 2.142395 -0.572705 5.717809 -5.390311 3.117628 -22.874158 5.673995 -0.000014 0.000005 -15.794111 12.197315 -57.686541 0.000009 -0.000009 -12.238702 38.496322 -12.966217 13.845470 -0.000003 0.000000 -10.253700 -108.975129 12.169708 -26.304848 -2.882598 -1.580101 6.695807 -2.751872 -10.581027 24.386970 -4.235610 -0.000000 0.000000 23.311736 -6.372584 80.584006 0.000002 0.000006 -10.709896 -31.523587 -24.104668 -27.679868 -0.000004 0.000004 -11.716803 109.998250 4.615133 4.780030 2.279500 0.210400 -2.475503 22.371163 -16.075745 -7.096960 0.000000 -0.000002 -20.742800 -23.584063 36.528060 -3.660140 0.000002 -0.000006 -16.666000 -7.467168 54.671313 18.789207 -1.961893 0.232299 -2.727405 -58.689097 -31.269777 2.827510 -0.000011 -0.000014 -20.526798 5.675680 28.494456 6.698616 0.000003 0.000006 -16.867302 73.436924 66.366482 -52.061758
63.196907 61.774796 47.289391 -74.970130 -1.618276 -3.004228 -0.637403 0.831600 5.390094 5.737849 22.026990 -3.377630 -0.000001 -0.000001 4.429897 -2.776904 -0.678615 -0.084272 0.000002 -0.000008 10.301392 -26.243720 51.032421 -3.839256 0.000001 0.000003 2.173901 -1.487571 4.303983 -1.528738 2.142395 -0.572708 5.717798 -5.258478 2.662484 -23.202755 5.673995 0.000000 -0.000003 -15.717387 12.260554 -57.399694 -0.000003 -0.000013 -12.238701 38.161688 -13.039099 13.848126 0.000001 0.000004 -10.253695 -108.912482 12.207182 -26.332797 -2.882602 -1.580103 6.695793 -2.545198 -10.232493 24.226753 -4.235612 0.000005 -0.000003 23.113353 -6.649150 80.716607 0.000008 0.000005 -10.709909 -31.414055 -24.091139 -27.642033 0.000000 0.000009 -11.716805 109.849345 4.599106 4.949740 2.279497 0.210402 -2.475496 22.701049 -16.208415 -7.054663 0.000000 -0.000003 -20.742796 -23.745622 36.615575 -3.649180 0.000002 -0.000002 -16.665997 -7.590041 54.611590 18.711088 -1.961899 0.232293 -2.727403 -58.376718 -31.190547 2.955727 -0.000004 -0.000004 -20.526794 5.335944 28.358158 6.683863 0.000007 0.000006 -16.867304 73.646016 66.375874 -52.316053
63.221420 61.788799 47.285995 -75.029567 -1.579483 -2.970512 -0.637406 0.831597 5.390092 5.269879 22.003938 -3.115697 0.000001 -0.000003 4.429898 -2.509783 -0.630185 -0.084973 0.000000 -0.000002 10.301396 -26.029511 51.086629 -3.955620 0.000008 -0.000013 2.173894 -1.377260 4.275967 -1.435216 2.142395 -0.572695 5.717804 -5.170984 2.294954 -23.507699 5.673989 -0.000001 -0.000002 -15.667889 12.393818 -57.146513 0.000007 -0.000012 -12.238699 37.955867 -13.077983 13.833767 -0.000008 0.000010 -10.253693 -108.841824 12.255608 -26.371553 -2.882598 -1.580089 6.695796 -2.373424 -9.856429 24.274629 -4.235617 -0.000008 -0.000007 22.977194 -6.867018 80.669267 0.000002 -0.000010 -10.709898 -31.493985 -24.023659 -27.618302 -0.000009 0.000021 -11.716800 109.745758 4.558382 5.080501 2.279496 0.210398 -2.475503 23.139549 -16.426111 -6.985991 0.000000 -0.000007 -20.742805 -23.638766 36.676429 -3.810054 -0.000000 0.000002 -16.666000 -8.024483 54.626535 18.705226 -1.961899 0.232295 -2.727408 -58.084243 -31.111037 3.052800 -0.000007 -0.000002 -20.526794 5.109151 28.235790 6.598749 -0.000000 0.000003 -16.867300 73.700521 66.406507 -52.613347
